<svg xmlns="http://www.w3.org/2000/svg" version="1.1" xmlns:xlink="http://www.w3.org/1999/xlink" xmlns:svgjs="http://svgjs.com/svgjs" width="1920" height="1024" preserveAspectRatio="none" viewBox="0 0 1920 1024"><g mask="url(&quot;#SvgjsMask1017&quot;)" fill="none"><rect width="1920" height="1024" x="0" y="0" fill="#0e2a47"></rect><path d="M0 0L130.46 0L0 440.12z" fill="rgba(255, 255, 255, .1)"></path><path d="M0 440.12L130.46 0L965.1800000000001 0L0 656.2z" fill="rgba(255, 255, 255, .075)"></path><path d="M0 656.2L965.1800000000001 0L1228.95 0L0 863.9300000000001z" fill="rgba(255, 255, 255, .05)"></path><path d="M0 863.9300000000001L1228.95 0L1696.1 0L0 972.2900000000001z" fill="rgba(255, 255, 255, .025)"></path><path d="M1920 1024L1423.91 1024L1920 951.49z" fill="rgba(0, 0, 0, .1)"></path><path d="M1920 951.49L1423.91 1024L1422.28 1024L1920 793.05z" fill="rgba(0, 0, 0, .075)"></path><path d="M1920 793.05L1422.28 1024L619.99 1024L1920 683.3499999999999z" fill="rgba(0, 0, 0, .05)"></path><path d="M1920 683.35L619.99 1024L520.98 1024L1920 235.90000000000003z" fill="rgba(0, 0, 0, .025)"></path></g><defs><mask id="SvgjsMask1017"><rect width="1920" height="1024" fill="#ffffff"></rect></mask></defs></svg>